<svg width="10" height="11" viewBox="0 0 10 11" fill="none" xmlns="http://www.w3.org/2000/svg">
<path d="M2.35214 10.5429C2.14414 9.97956 1.92314 9.45523 1.68914 8.9699C1.45514 8.4759 1.19947 7.99923 0.922141 7.5399C0.653474 7.0719 0.345807 6.5909 -0.000859366 6.0969L1.45514 5.1349C1.85381 5.74156 2.20047 6.3569 2.49514 6.9809C2.78981 7.59623 3.05847 8.21156 3.30114 8.8269H3.36614C3.62614 7.93423 3.92947 7.06756 4.27614 6.2269C4.62281 5.38623 4.99981 4.5889 5.40714 3.8349C5.82314 3.07223 6.26081 2.37023 6.72014 1.7289C7.17947 1.0789 7.65614 0.502563 8.15014 -0.000104129L9.56714 1.2349C8.91714 1.84156 8.28014 2.5739 7.65614 3.4319C7.03214 4.2899 6.45147 5.28656 5.91414 6.4219C5.37681 7.55723 4.90447 8.84856 4.49714 10.2959L2.35214 10.5429Z" fill="#2C4A8F"/>
</svg>
