<svg width="80" height="80" viewBox="0 0 80 80" fill="none" xmlns="http://www.w3.org/2000/svg">
<mask id="path-1-inside-1_48_287" fill="white">
<path d="M0 20C0 8.95431 8.95431 0 20 0H60C71.0457 0 80 8.95431 80 20V60C80 71.0457 71.0457 80 60 80H20C8.95431 80 0 71.0457 0 60V20Z"/>
</mask>
<path d="M0 20C0 8.95431 8.95431 0 20 0H60C71.0457 0 80 8.95431 80 20V60C80 71.0457 71.0457 80 60 80H20C8.95431 80 0 71.0457 0 60V20Z" fill="#1A2B48"/>
<path d="M20 0V1H60V0V-1H20V0ZM80 20H79V60H80H81V20H80ZM60 80V79H20V80V81H60V80ZM0 60H1V20H0H-1V60H0ZM20 80V79C9.50659 79 1 70.4934 1 60H0H-1C-1 71.598 8.40202 81 20 81V80ZM80 60H79C79 70.4934 70.4934 79 60 79V80V81C71.598 81 81 71.598 81 60H80ZM60 0V1C70.4934 1 79 9.50659 79 20H80H81C81 8.40202 71.598 -1 60 -1V0ZM20 0V-1C8.40202 -1 -1 8.40202 -1 20H0H1C1 9.50659 9.50659 1 20 1V0Z" fill="#2EC49A" fill-opacity="0.22" mask="url(#path-1-inside-1_48_287)"/>
<g clip-path="url(#clip0_48_287)">
<path d="M38.65 26.5H23.35C22.6044 26.5 22 27.1044 22 27.85C22 28.5956 22.6044 29.2 23.35 29.2H38.65C39.3956 29.2 40 28.5956 40 27.85C40 27.1044 39.3956 26.5 38.65 26.5Z" fill="#EEF4FF" fill-opacity="0.85"/>
<path d="M32.65 32.5H23.35C22.6044 32.5 22 33.1044 22 33.85C22 34.5956 22.6044 35.2 23.35 35.2H32.65C33.3956 35.2 34 34.5956 34 33.85C34 33.1044 33.3956 32.5 32.65 32.5Z" fill="#EEF4FF" fill-opacity="0.35"/>
<path d="M22 52L29.5 46L37 49L44.5 38.5L52 41.5L58 31" stroke="#DBEAFE" stroke-width="3" stroke-linecap="round" stroke-linejoin="round"/>
<path d="M58.0002 34.3C59.8227 34.3 61.3002 32.8225 61.3002 31C61.3002 29.1774 59.8227 27.7 58.0002 27.7C56.1777 27.7 54.7002 29.1774 54.7002 31C54.7002 32.8225 56.1777 34.3 58.0002 34.3Z" fill="#DBEAFE" fill-opacity="0.866667"/>
</g>
<defs>
<clipPath id="clip0_48_287">
<rect width="48" height="48" fill="white" transform="translate(16 16)"/>
</clipPath>
</defs>
</svg>
