<svg width="71" height="28" viewBox="0 0 71 28" fill="none" xmlns="http://www.w3.org/2000/svg">
<path d="M1.452 23V6.61H8.382C9.51133 6.61 10.4793 6.80067 11.286 7.182C12.0927 7.56333 12.7087 8.11333 13.134 8.832C13.5593 9.536 13.772 10.394 13.772 11.406C13.772 12.1247 13.574 12.814 13.178 13.474C12.782 14.1193 12.1293 14.662 11.22 15.102V13.43C12.0853 13.7673 12.7527 14.1707 13.222 14.64C13.6913 15.1093 14.014 15.6227 14.19 16.18C14.366 16.7227 14.454 17.2947 14.454 17.896C14.454 19.5093 13.9187 20.7633 12.848 21.658C11.7773 22.5527 10.2887 23 8.382 23H1.452ZM4.862 20.03H8.778C9.46733 20.03 10.0173 19.832 10.428 19.436C10.8387 19.04 11.044 18.5267 11.044 17.896C11.044 17.2507 10.8387 16.73 10.428 16.334C10.0173 15.938 9.46733 15.74 8.778 15.74H4.862V20.03ZM4.862 12.77H8.624C9.152 12.77 9.57 12.6233 9.878 12.33C10.2007 12.022 10.362 11.6187 10.362 11.12C10.362 10.6213 10.2007 10.2253 9.878 9.932C9.57 9.624 9.152 9.47 8.624 9.47H4.862V12.77ZM15.7395 23V10.988H18.8195V13.87L18.5995 13.452C18.8635 12.44 19.2961 11.758 19.8975 11.406C20.5135 11.0393 21.2395 10.856 22.0755 10.856H22.7795V13.716H21.7455C20.9388 13.716 20.2861 13.9653 19.7875 14.464C19.2888 14.948 19.0395 15.6373 19.0395 16.532V23H15.7395ZM23.5658 23V10.988H26.8658V23H23.5658ZM23.5658 9.91V6.61H26.8658V9.91H23.5658ZM34.4066 23.264C33.1306 23.264 32.0233 22.9853 31.0846 22.428C30.146 21.856 29.42 21.0933 28.9066 20.14C28.3933 19.1867 28.1366 18.1307 28.1366 16.972C28.1366 15.7693 28.4006 14.6987 28.9286 13.76C29.4713 12.8213 30.1973 12.0807 31.1066 11.538C32.016 10.9953 33.0426 10.724 34.1866 10.724C35.14 10.724 35.9833 10.878 36.7166 11.186C37.45 11.4793 38.066 11.8973 38.5646 12.44C39.078 12.9827 39.4666 13.6133 39.7306 14.332C39.9946 15.036 40.1266 15.806 40.1266 16.642C40.1266 16.8767 40.112 17.1113 40.0826 17.346C40.068 17.566 40.0313 17.7567 39.9726 17.918H30.9746V15.498H38.1026L36.5406 16.642C36.6873 16.0113 36.68 15.454 36.5186 14.97C36.3573 14.4713 36.0713 14.0827 35.6606 13.804C35.2646 13.5107 34.7733 13.364 34.1866 13.364C33.6146 13.364 33.1233 13.5033 32.7126 13.782C32.302 14.0607 31.994 14.4713 31.7886 15.014C31.5833 15.5567 31.5026 16.2167 31.5466 16.994C31.488 17.6687 31.5686 18.2627 31.7886 18.776C32.0086 19.2893 32.346 19.6927 32.8006 19.986C33.2553 20.2647 33.8053 20.404 34.4506 20.404C35.0373 20.404 35.536 20.2867 35.9466 20.052C36.372 19.8173 36.702 19.4947 36.9366 19.084L39.5766 20.338C39.342 20.9247 38.968 21.438 38.4546 21.878C37.956 22.318 37.362 22.6627 36.6726 22.912C35.9833 23.1467 35.228 23.264 34.4066 23.264Z" fill="#111D35"/>
<path d="M41.6518 23V6.61H52.8718V9.58H45.0618V13.738H51.7718V16.708H45.0618V23H41.6518ZM53.662 23V10.988H56.962V23H53.662ZM53.662 9.91V6.61H56.962V9.91H53.662ZM58.7168 23V10.988H61.7968V13.364L61.6208 12.836C61.8995 12.1173 62.3468 11.5893 62.9628 11.252C63.5935 10.9 64.3268 10.724 65.1628 10.724C66.0721 10.724 66.8641 10.9147 67.5388 11.296C68.2281 11.6773 68.7635 12.2127 69.1448 12.902C69.5261 13.5767 69.7168 14.3687 69.7168 15.278V23H66.4168V15.982C66.4168 15.5127 66.3215 15.1093 66.1308 14.772C65.9548 14.4347 65.6981 14.1707 65.3608 13.98C65.0381 13.7893 64.6568 13.694 64.2168 13.694C63.7915 13.694 63.4101 13.7893 63.0728 13.98C62.7355 14.1707 62.4715 14.4347 62.2808 14.772C62.1048 15.1093 62.0168 15.5127 62.0168 15.982V23H58.7168Z" fill="#1A9D75"/>
</svg>
