<svg width="84" height="84" viewBox="0 0 84 84" fill="none" xmlns="http://www.w3.org/2000/svg">
<mask id="path-1-inside-1_48_300" fill="white">
<path d="M0 24C0 12.9543 8.95431 4 20 4H60C71.0457 4 80 12.9543 80 24V64C80 75.0457 71.0457 84 60 84H20C8.95431 84 0 75.0457 0 64V24Z"/>
</mask>
<path d="M0 24C0 12.9543 8.95431 4 20 4H60C71.0457 4 80 12.9543 80 24V64C80 75.0457 71.0457 84 60 84H20C8.95431 84 0 75.0457 0 64V24Z" fill="#1A2B48"/>
<path d="M20 4V5H60V4V3H20V4ZM80 24H79V64H80H81V24H80ZM60 84V83H20V84V85H60V84ZM0 64H1V24H0H-1V64H0ZM20 84V83C9.50659 83 1 74.4934 1 64H0H-1C-1 75.598 8.40202 85 20 85V84ZM80 64H79C79 74.4934 70.4934 83 60 83V84V85C71.598 85 81 75.598 81 64H80ZM60 4V5C70.4934 5 79 13.5066 79 24H80H81C81 12.402 71.598 3 60 3V4ZM20 4V3C8.40202 3 -1 12.402 -1 24H0H1C1 13.5066 9.50659 5 20 5V4Z" fill="#2EC49A" fill-opacity="0.22" mask="url(#path-1-inside-1_48_300)"/>
<g clip-path="url(#clip0_48_300)">
<path d="M38.65 30.5H23.35C22.6044 30.5 22 31.1044 22 31.85C22 32.5956 22.6044 33.2 23.35 33.2H38.65C39.3956 33.2 40 32.5956 40 31.85C40 31.1044 39.3956 30.5 38.65 30.5Z" fill="#EEF4FF" fill-opacity="0.85"/>
<path d="M32.65 36.5H23.35C22.6044 36.5 22 37.1044 22 37.85C22 38.5956 22.6044 39.2 23.35 39.2H32.65C33.3956 39.2 34 38.5956 34 37.85C34 37.1044 33.3956 36.5 32.65 36.5Z" fill="#EEF4FF" fill-opacity="0.35"/>
<path d="M22 56L29.5 50L37 53L44.5 42.5L52 45.5L58 35" stroke="#DBEAFE" stroke-width="3" stroke-linecap="round" stroke-linejoin="round"/>
<path d="M58.0002 38.3C59.8227 38.3 61.3002 36.8225 61.3002 35C61.3002 33.1774 59.8227 31.7 58.0002 31.7C56.1777 31.7 54.7002 33.1774 54.7002 35C54.7002 36.8225 56.1777 38.3 58.0002 38.3Z" fill="#DBEAFE" fill-opacity="0.866667"/>
</g>
<path d="M1 80H79V83H1V80Z" fill="url(#paint0_linear_48_300)"/>
<mask id="path-8-inside-2_48_300" fill="white">
<path d="M68 8C68 3.58172 71.5817 0 76 0C80.4183 0 84 3.58172 84 8C84 12.4183 80.4183 16 76 16C71.5817 16 68 12.4183 68 8Z"/>
</mask>
<path d="M68 8C68 3.58172 71.5817 0 76 0C80.4183 0 84 3.58172 84 8C84 12.4183 80.4183 16 76 16C71.5817 16 68 12.4183 68 8Z" fill="#DBEAFE"/>
<path d="M68 8M84 8M84 8M68 8M76 0M84 8M76 16M68 8M76 16V13C73.2386 13 71 10.7614 71 8H68H65C65 14.0751 69.9249 19 76 19V16ZM84 8H81C81 10.7614 78.7614 13 76 13V16V19C82.0751 19 87 14.0751 87 8H84ZM76 0V3C78.7614 3 81 5.23858 81 8H84H87C87 1.92487 82.0751 -3 76 -3V0ZM76 0V-3C69.9249 -3 65 1.92487 65 8H68H71C71 5.23858 73.2386 3 76 3V0Z" fill="#111D35" mask="url(#path-8-inside-2_48_300)"/>
<defs>
<linearGradient id="paint0_linear_48_300" x1="1" y1="81.5" x2="79" y2="81.5" gradientUnits="userSpaceOnUse">
<stop stop-color="#F3F7FC"/>
<stop offset="1" stop-color="#DBEAFE"/>
</linearGradient>
<clipPath id="clip0_48_300">
<rect width="48" height="48" fill="white" transform="translate(16 20)"/>
</clipPath>
</defs>
</svg>
