<svg width="40" height="40" viewBox="0 0 40 40" fill="none" xmlns="http://www.w3.org/2000/svg">
<rect width="40" height="40" rx="10" fill="#1A2B48"/>
<path d="M19.325 13.25H11.675C11.3022 13.25 11 13.5522 11 13.925C11 14.2978 11.3022 14.6 11.675 14.6H19.325C19.6978 14.6 20 14.2978 20 13.925C20 13.5522 19.6978 13.25 19.325 13.25Z" fill="#EEF4FF" fill-opacity="0.85"/>
<path d="M16.325 16.25H11.675C11.3022 16.25 11 16.5522 11 16.925C11 17.2978 11.3022 17.6 11.675 17.6H16.325C16.6978 17.6 17 17.2978 17 16.925C17 16.5522 16.6978 16.25 16.325 16.25Z" fill="#EEF4FF" fill-opacity="0.35"/>
<path d="M11 26L14.75 23L18.5 24.5L22.25 19.25L26 20.75L29 15.5" stroke="#2EC49A" stroke-width="1.65" stroke-linecap="round" stroke-linejoin="round"/>
<path d="M29.0001 17.15C29.9114 17.15 30.6501 16.4112 30.6501 15.5C30.6501 14.5887 29.9114 13.85 29.0001 13.85C28.0888 13.85 27.3501 14.5887 27.3501 15.5C27.3501 16.4112 28.0888 17.15 29.0001 17.15Z" fill="#2EC49A"/>
<rect y="38" width="40" height="2" fill="url(#paint0_linear_48_173)"/>
<defs>
<linearGradient id="paint0_linear_48_173" x1="0" y1="39" x2="40" y2="39" gradientUnits="userSpaceOnUse">
<stop stop-color="#1A9D75"/>
<stop offset="1" stop-color="#2EC49A"/>
</linearGradient>
</defs>
</svg>
