<svg width="177" height="56" viewBox="0 0 177 56" fill="none" xmlns="http://www.w3.org/2000/svg">
<path d="M3.696 51V9.28H21.336C24.2107 9.28 26.6747 9.76533 28.728 10.736C30.7813 11.7067 32.3493 13.1067 33.432 14.936C34.5147 16.728 35.056 18.912 35.056 21.488C35.056 23.3173 34.552 25.072 33.544 26.752C32.536 28.3947 30.8747 29.776 28.56 30.896V26.64C30.7627 27.4987 32.4613 28.5253 33.656 29.72C34.8507 30.9147 35.672 32.2213 36.12 33.64C36.568 35.0213 36.792 36.4773 36.792 38.008C36.792 42.1147 35.4293 45.3067 32.704 47.584C29.9787 49.8613 26.1893 51 21.336 51H3.696ZM12.376 43.44H22.344C24.0987 43.44 25.4987 42.936 26.544 41.928C27.5893 40.92 28.112 39.6133 28.112 38.008C28.112 36.3653 27.5893 35.04 26.544 34.032C25.4987 33.024 24.0987 32.52 22.344 32.52H12.376V43.44ZM12.376 24.96H21.952C23.296 24.96 24.36 24.5867 25.144 23.84C25.9653 23.056 26.376 22.0293 26.376 20.76C26.376 19.4907 25.9653 18.4827 25.144 17.736C24.36 16.952 23.296 16.56 21.952 16.56H12.376V24.96ZM39.5041 51V20.424H47.3441V27.76L46.7841 26.696C47.4561 24.12 48.5574 22.384 50.0881 21.488C51.6561 20.5547 53.5041 20.088 55.6321 20.088H57.4241V27.368H54.7921C52.7387 27.368 51.0774 28.0027 49.8081 29.272C48.5387 30.504 47.9041 32.2587 47.9041 34.536V51H39.5041ZM58.8656 51V20.424H67.2656V51H58.8656ZM58.8656 17.68V9.28H67.2656V17.68H58.8656ZM85.9005 51.672C82.6525 51.672 79.8338 50.9627 77.4445 49.544C75.0552 48.088 73.2072 46.1467 71.9005 43.72C70.5938 41.2933 69.9405 38.6053 69.9405 35.656C69.9405 32.5947 70.6125 29.8693 71.9565 27.48C73.3378 25.0907 75.1858 23.2053 77.5005 21.824C79.8152 20.4427 82.4285 19.752 85.3405 19.752C87.7672 19.752 89.9138 20.144 91.7805 20.928C93.6472 21.6747 95.2152 22.7387 96.4845 24.12C97.7912 25.5013 98.7805 27.1067 99.4525 28.936C100.124 30.728 100.46 32.688 100.46 34.816C100.46 35.4133 100.423 36.0107 100.349 36.608C100.311 37.168 100.218 37.6533 100.069 38.064H77.1645V31.904H95.3085L91.3325 34.816C91.7058 33.2107 91.6872 31.792 91.2765 30.56C90.8658 29.2907 90.1378 28.3013 89.0925 27.592C88.0845 26.8453 86.8338 26.472 85.3405 26.472C83.8845 26.472 82.6338 26.8267 81.5885 27.536C80.5432 28.2453 79.7592 29.2907 79.2365 30.672C78.7138 32.0533 78.5085 33.7333 78.6205 35.712C78.4712 37.4293 78.6765 38.9413 79.2365 40.248C79.7965 41.5547 80.6552 42.5813 81.8125 43.328C82.9698 44.0373 84.3698 44.392 86.0125 44.392C87.5058 44.392 88.7752 44.0933 89.8205 43.496C90.9032 42.8987 91.7432 42.0773 92.3405 41.032L99.0605 44.224C98.4632 45.7173 97.5112 47.024 96.2045 48.144C94.9352 49.264 93.4232 50.1413 91.6685 50.776C89.9138 51.3733 87.9912 51.672 85.9005 51.672Z" fill="#1A2B48"/>
<path d="M103.783 51V9.28H132.343V16.84H112.463V27.424H129.543V34.984H112.463V51H103.783ZM133.794 51V20.424H142.194V51H133.794ZM133.794 17.68V9.28H142.194V17.68H133.794ZM146.101 51V20.424H153.941V26.472L153.493 25.128C154.202 23.2987 155.341 21.9547 156.909 21.096C158.514 20.2 160.381 19.752 162.509 19.752C164.824 19.752 166.84 20.2373 168.557 21.208C170.312 22.1787 171.674 23.5413 172.645 25.296C173.616 27.0133 174.101 29.0293 174.101 31.344V51H165.701V33.136C165.701 31.9413 165.458 30.9147 164.973 30.056C164.525 29.1973 163.872 28.5253 163.013 28.04C162.192 27.5547 161.221 27.312 160.101 27.312C159.018 27.312 158.048 27.5547 157.189 28.04C156.33 28.5253 155.658 29.1973 155.173 30.056C154.725 30.9147 154.501 31.9413 154.501 33.136V51H146.101Z" fill="#1E3776"/>
</svg>
