<svg width="16" height="16" viewBox="0 0 16 16" fill="none" xmlns="http://www.w3.org/2000/svg">
<path d="M14.4124 13.9316H1.5874C0.897402 13.9316 0.337402 13.3716 0.337402 12.6816V3.68164C0.337402 2.99164 0.897402 2.43164 1.5874 2.43164H14.4124C15.1024 2.43164 15.6624 2.99164 15.6624 3.68164V12.6816C15.6624 13.3729 15.1024 13.9316 14.4124 13.9316Z" fill="#016CA2"/>
<path d="M7.995 7.47524L7.99125 7.47649C7.96125 7.48774 7.9525 7.52524 7.9725 7.55024L8.0975 7.70149L8.1825 7.62899L8.04625 7.48649C8.03967 7.47993 8.03135 7.47538 8.02227 7.47339C8.01319 7.47139 8.00373 7.47204 7.995 7.47524ZM5.96625 9.86899L5.6375 9.69774C5.60875 9.68274 5.575 9.67399 5.5425 9.67399H5.4475C5.43891 9.67378 5.43067 9.67052 5.42426 9.6648C5.41785 9.65907 5.41368 9.65126 5.4125 9.64274C5.4025 9.53774 5.31375 9.4565 5.20875 9.4565H5.17875C5.115 9.4565 5.055 9.42649 5.01625 9.37524L4.97125 9.31524C4.93625 9.26899 4.88375 9.24024 4.82625 9.23524L4.58125 9.21399C4.57526 9.21393 4.56949 9.21171 4.565 9.20774L4.525 9.18024C4.51375 9.17274 4.5 9.17149 4.48875 9.17899L4.31375 9.27775C4.2825 9.29525 4.24875 9.30399 4.2125 9.30399H4.0325C4.02625 9.30399 4.02125 9.30275 4.01625 9.30025C3.99625 9.289 3.95 9.25399 3.95 9.17649V9.07274C3.95 9.06815 3.94909 9.0636 3.94734 9.05935C3.94558 9.0551 3.943 9.05125 3.93975 9.048C3.9365 9.04475 3.93264 9.04217 3.92839 9.04041C3.92415 9.03865 3.9196 9.03774 3.915 9.03774H3.80125C3.79513 9.03769 3.78914 9.03603 3.78386 9.03294C3.77858 9.02985 3.77421 9.02542 3.77117 9.02011C3.76814 9.0148 3.76655 9.00878 3.76656 9.00267C3.76657 8.99655 3.76819 8.99054 3.77125 8.98524L3.825 8.89149C3.8275 8.88649 3.83 8.88024 3.83 8.87399V8.79149C3.83 8.78221 3.82631 8.77331 3.81975 8.76675C3.81318 8.76018 3.80428 8.75649 3.795 8.75649H3.7325C3.72125 8.75649 3.71 8.76274 3.70375 8.77274L3.66875 8.82774C3.63125 8.88649 3.56625 8.92149 3.49625 8.92149H3.44625C3.44625 8.92149 3.365 8.90649 3.365 8.82024V8.50649C3.36625 8.49649 3.37375 8.46524 3.4075 8.44399C3.4375 8.42524 3.5075 8.38774 3.5425 8.36899C3.555 8.36274 3.57125 8.36399 3.5825 8.37399L3.64875 8.43524C3.655 8.44149 3.6625 8.44399 3.67125 8.44399C3.6925 8.44399 3.73125 8.44524 3.73875 8.44149C3.74875 8.43649 3.72375 8.39149 3.78375 8.37274C3.845 8.35524 3.885 8.41024 3.885 8.41024L4.04 8.59399C4.05125 8.60774 4.07125 8.61024 4.08625 8.60024L4.10875 8.58524C4.12375 8.57524 4.12875 8.55524 4.12 8.53899L4.1175 8.53399C4.0675 8.44774 4.08625 8.33774 4.1625 8.27399L4.29125 8.16524C4.29125 8.16524 4.30625 8.15524 4.31375 8.09899C4.31875 8.06524 4.3275 8.01524 4.33375 7.98024C4.3475 7.95774 4.35875 7.93649 4.3725 7.91399L4.65 7.68024C4.66625 7.66649 4.69 7.67024 4.70125 7.68774C4.715 7.70774 4.7375 7.73024 4.76625 7.72899C4.81 7.72649 4.91875 7.66774 4.96125 7.64274C4.96661 7.6398 4.97107 7.63545 4.97415 7.63017C4.97724 7.62488 4.97883 7.61886 4.97875 7.61274V7.56899L4.845 7.59649C4.82625 7.60024 4.8075 7.58774 4.80375 7.56774L4.78875 7.48024C4.78731 7.47229 4.78316 7.46508 4.77701 7.45984C4.77086 7.4546 4.76308 7.45165 4.755 7.45149L4.62125 7.46649L4.6375 7.42649C4.6425 7.41274 4.655 7.40399 4.67 7.40149L5 7.36649C5.03 7.35399 5.075 7.33649 5.105 7.32399L5.17125 7.27274C5.1875 7.26024 5.18875 7.23649 5.175 7.22149L4.80375 6.84149C4.7986 6.83639 4.79203 6.83294 4.7849 6.8316C4.77777 6.83026 4.7704 6.8311 4.76375 6.83399L4.6525 6.88649C4.64125 6.89149 4.6275 6.89024 4.6175 6.88399L4.31 6.66774C4.3064 6.66509 4.30231 6.66317 4.29796 6.66211C4.29362 6.66104 4.2891 6.66085 4.28468 6.66155C4.28026 6.66225 4.27602 6.66382 4.27221 6.66617C4.26841 6.66852 4.2651 6.67161 4.2625 6.67524L4.215 6.74024C4.21125 6.74524 4.20875 6.75149 4.20875 6.75899L4.2 6.92024C4.2 6.93024 4.2025 6.93899 4.21 6.94649L4.255 6.99274C4.27 7.00774 4.2675 7.03274 4.25 7.04524L4.18375 7.09274C4.1793 7.09597 4.17415 7.09811 4.16872 7.09898C4.16329 7.09985 4.15774 7.09942 4.1525 7.09774L4.0025 7.12274C3.98125 7.06649 3.935 7.02274 3.8775 7.00274L3.8025 6.97649C3.66625 6.93024 3.62 6.76149 3.71125 6.65149L3.8575 6.47524C3.86126 6.47033 3.86379 6.46459 3.86488 6.4585C3.86596 6.45241 3.86558 6.44615 3.86375 6.44024L3.8225 6.33399L3.815 6.32274L3.65 6.14649C3.585 6.07774 3.46875 6.11274 3.45375 6.20649L3.4525 6.21649C3.44375 6.27149 3.395 6.31274 3.34 6.31274H2.84875C2.82125 6.30649 2.79375 6.30149 2.765 6.29524L2.42875 6.14524C2.405 6.13899 2.3825 6.13399 2.35875 6.12774L2.05 6.10774C2.02125 6.11274 1.9925 6.11649 1.96375 6.12149L1.825 6.17524C1.7875 6.18899 1.7475 6.19274 1.70875 6.18399L1.0225 6.03774C0.98125 6.02899 0.9375 6.03274 0.89875 6.05024L0.575 6.18899C0.55125 6.19899 0.54625 6.23024 0.56625 6.24774L0.65125 6.31899C0.675 6.33899 0.66125 6.37899 0.63 6.38024L0.5025 6.38274C0.48375 6.38274 0.46875 6.39899 0.46875 6.41774V6.43524C0.46875 6.45399 0.48375 6.46899 0.5025 6.47024L0.6125 6.47149C0.65 6.47274 0.66 6.52274 0.62625 6.53774L0.53125 6.58024C0.5175 6.58649 0.51 6.60024 0.51125 6.61524L0.52 6.71024C0.52875 6.80399 0.59875 6.87899 0.6925 6.89399L0.76 6.90524C0.7925 6.91024 0.8 6.95274 0.7725 6.96899L0.75125 6.98149C0.72875 6.99524 0.72875 7.02774 0.75125 7.04024L0.7625 7.04649C0.7725 7.05274 0.78375 7.05274 0.795 7.04899L1.37375 6.78774C1.44875 6.75399 1.53625 6.76774 1.59625 6.82399L2.1475 7.32774C2.1875 7.36399 2.21125 7.41524 2.21375 7.46899L2.2325 7.85399C2.235 7.89774 2.25 7.93899 2.2775 7.97274L2.82 8.64774C2.83 8.66024 2.8475 8.66399 2.8625 8.65649C2.88125 8.64649 2.8875 8.62274 2.875 8.60524C2.875 8.60524 3.2175 8.96024 3.25 8.97524L3.5275 9.11275C3.55625 9.1265 3.58625 9.13399 3.61875 9.13399H3.75625C3.77 9.13399 3.7825 9.14149 3.7875 9.15399L3.83375 9.25399C3.83375 9.25524 3.835 9.25524 3.835 9.25649C3.84375 9.27024 3.915 9.39149 3.99125 9.39649C4.0725 9.40149 4.21875 9.39649 4.21875 9.39649C4.21875 9.39649 4.27125 9.39524 4.27125 9.45274V9.54024C4.27125 9.55274 4.265 9.56399 4.25375 9.57024C4.20875 9.59524 4.0925 9.66899 4.0925 9.75274V9.94899C4.0925 9.95774 4.095 9.96524 4.1 9.97149C4.115 9.98899 4.1475 10.0265 4.175 10.049C4.205 10.0727 4.2575 10.134 4.27875 10.1577C4.28375 10.164 4.28625 10.1715 4.28625 10.1802V10.2927C4.2875 10.2965 4.2875 10.3015 4.28875 10.3052C4.295 10.3202 4.31125 10.3577 4.34 10.3715C4.3575 10.3802 4.40125 10.4152 4.44125 10.4502C4.49125 10.4927 4.5175 10.5565 4.5125 10.6227L4.4875 10.9427C4.485 10.9552 4.48375 10.9677 4.48125 10.9802L4.37 11.3977C4.3675 11.4227 4.36625 11.4465 4.36375 11.4715L4.375 11.6427C4.3775 11.6727 4.375 11.7027 4.365 11.7315L4.32375 11.8477C4.31125 11.8852 4.30875 11.9252 4.3175 11.964L4.37 12.1802C4.37625 12.2052 4.39 12.2277 4.41125 12.244L4.465 12.2865C4.485 12.3027 4.515 12.3252 4.53625 12.3102C4.64 12.239 4.6775 11.9515 4.7225 11.844C4.745 11.789 5.0775 11.3552 5.07625 11.2965L5.07375 11.2127C5.07375 11.1927 5.08875 11.1777 5.10875 11.1777H5.215C5.225 11.1777 5.23375 11.174 5.24 11.1665L5.48875 10.894C5.495 10.8877 5.4975 10.879 5.4975 10.8702V10.759C5.4975 10.739 5.51375 10.724 5.53375 10.724C5.57625 10.7265 5.64625 10.7265 5.67 10.7065C5.7 10.6815 5.79 10.5765 5.81875 10.544C5.82375 10.5377 5.8275 10.5302 5.8275 10.5215V10.3452C5.8275 10.294 5.84625 10.2452 5.88125 10.2065L6.00625 10.069C6.04125 10.0315 6.05 9.97525 6.025 9.92525C6.0125 9.9015 5.99125 9.88149 5.96625 9.86899Z" fill="#BDCF46"/>
<path d="M14.5936 5.91928H14.2436C14.2261 5.91928 14.2111 5.90803 14.2061 5.89178L13.8711 5.82803C13.8423 5.82803 13.8136 5.81928 13.7886 5.80303L13.7123 5.75178C13.6873 5.73553 13.6586 5.72678 13.6298 5.72678C13.6298 5.72678 12.8498 5.32803 11.8286 5.36678C11.4448 5.38178 11.1073 5.57303 11.1073 5.57303C11.0973 5.57678 11.0898 5.58678 11.0886 5.59678L11.0848 5.62803C11.0823 5.64303 11.0698 5.65428 11.0536 5.65428L10.8998 5.65053C10.8823 5.65053 10.8686 5.66428 10.8686 5.68053L10.4386 5.69553C10.4011 5.69553 10.3661 5.71428 10.3448 5.74428L10.3061 5.80053C10.2773 5.84178 9.89234 5.85553 9.89234 5.85553C9.88236 5.85118 9.87386 5.84401 9.86786 5.83492C9.86187 5.82582 9.85865 5.81518 9.85859 5.80428V5.75928C9.85859 5.74303 9.86484 5.72928 9.87734 5.71803L10.0823 5.53303C10.1048 5.51303 10.1336 5.49928 10.1636 5.49553L10.2911 5.47928C10.2985 5.47823 10.3057 5.47569 10.3121 5.47183C10.3186 5.46796 10.3242 5.46285 10.3286 5.45678L10.3436 5.43428C10.3648 5.40428 10.3511 5.36303 10.3173 5.35053L10.3086 5.34678C10.3012 5.34427 10.2934 5.3433 10.2857 5.34394C10.278 5.34459 10.2704 5.34683 10.2636 5.35053L10.1661 5.40678C10.1573 5.41178 10.1486 5.41428 10.1386 5.41428H10.0436C10.0036 5.41428 9.96609 5.43053 9.93734 5.45928L9.70859 5.69303C9.68859 5.71303 9.67484 5.73928 9.66859 5.76678L9.64734 5.86928L9.66234 5.91303L9.57234 6.03803L9.49109 6.11928H9.41484V6.03803H9.32359L9.29734 6.14053C9.28484 6.18803 9.25109 6.22553 9.20609 6.24303L9.12984 6.27178C9.08109 6.29053 9.02484 6.28178 8.98359 6.24803L8.88484 6.16803L9.15109 6.18178L9.18109 6.12428C9.18109 6.12428 8.90234 5.99553 8.74109 5.90428C8.60984 5.83053 8.43734 5.89303 8.37734 5.91928C8.36234 5.92553 8.34984 5.93428 8.33859 5.94428L7.75734 6.46803C7.69484 6.52428 7.69109 6.62303 7.75109 6.68303L7.80609 6.73928L7.88359 6.67553C7.90484 6.65803 7.93484 6.65928 7.95484 6.67803L8.09984 6.81303H8.13734L8.27484 6.65053C8.29109 6.63053 8.29234 6.60303 8.27609 6.58303L8.25859 6.55928C8.25195 6.5506 8.24805 6.54014 8.24738 6.52923C8.24671 6.51832 8.24931 6.50746 8.25484 6.49803L8.44609 6.18803C8.45609 6.17178 8.47734 6.16553 8.49484 6.17303L8.52859 6.18928C8.54859 6.19803 8.55609 6.22178 8.54609 6.24178L8.41484 6.49053C8.39859 6.52053 8.39609 6.55553 8.40609 6.58678L8.42734 6.65303C8.43734 6.70053 8.42859 6.75053 8.39984 6.78803L8.31734 6.89928C8.28859 6.93803 8.24109 6.96053 8.19234 6.95928L7.95359 6.95053C7.94264 6.94991 7.93232 6.9452 7.92468 6.93732C7.91704 6.92945 7.91264 6.919 7.91234 6.90803V6.86928C7.91234 6.84553 7.89359 6.82678 7.86984 6.82678C7.84859 6.82678 7.82984 6.84303 7.82734 6.86553L7.82109 6.93428C7.81859 6.95553 7.80109 6.97303 7.77859 6.97303H7.75609C7.74484 6.97303 7.73484 6.97678 7.72734 6.98428L7.33984 7.34178L7.39609 7.42303V7.50928C7.39609 7.53803 7.37234 7.56178 7.34359 7.56178H7.21984C7.15359 7.56178 7.10109 7.61803 7.10484 7.68428L7.10609 7.70053C7.10984 7.75928 7.15734 7.80553 7.21734 7.80803L7.34984 7.81178C7.39984 7.81303 7.44609 7.79053 7.47609 7.74928L7.57109 7.61553C7.59859 7.57678 7.64359 7.55303 7.69234 7.55303H7.78359C7.81359 7.55303 7.84359 7.56178 7.86859 7.57928L8.01484 7.68178C8.04359 7.70178 8.04609 7.74428 8.01859 7.76678L7.93609 7.83803C7.90859 7.86178 7.87484 7.87428 7.83859 7.87428H7.32359C7.27734 7.87428 7.23234 7.89678 7.20484 7.93428L6.80734 8.46553C6.78859 8.49178 6.77734 8.52303 6.77734 8.55428V8.90678C6.77734 8.93928 6.78734 8.97053 6.80734 8.99678L6.94609 9.18053C6.95734 9.19553 6.96484 9.21428 6.97109 9.23178C6.97984 9.26178 7.00484 9.30553 7.06484 9.30553H7.70734C7.70734 9.30553 7.86859 9.31053 7.86859 9.41678C7.86859 9.45428 7.86734 9.49178 7.86609 9.52428C7.86359 9.58178 7.89359 9.63303 7.94359 9.66178C7.98859 9.68803 8.03609 9.73303 8.03609 9.80553V10.0005C8.03609 10.0155 8.03359 10.0305 8.02984 10.0455C8.01859 10.0818 7.99234 10.1555 7.95609 10.2105C7.92234 10.2605 7.96984 10.3355 8.00484 10.3793C8.02609 10.4068 8.03734 10.4405 8.03734 10.4743V10.668C8.03734 10.668 8.05234 10.7393 8.11984 10.7693C8.18734 10.7993 8.21109 10.8168 8.21109 10.8168V10.8943C8.21109 10.9768 8.27734 11.043 8.35984 11.043H8.55484C8.55484 11.043 8.64234 11.0493 8.69984 10.9618C8.75734 10.8743 8.96234 10.5568 8.96234 10.5568C8.96234 10.5568 8.99984 10.5168 8.96234 10.4455C8.92484 10.3743 8.94234 10.3105 8.94234 10.3105L9.12109 10.208C9.12109 10.208 9.20484 10.1943 9.20484 10.078V9.95178C9.20484 9.93178 9.19984 9.91178 9.18859 9.89428L9.15734 9.84178C9.12359 9.78428 9.13234 9.71303 9.17734 9.66428L9.54734 9.27178C9.54734 9.27178 9.64484 9.12678 9.64484 9.05303H9.36109C9.30859 9.05303 9.26109 9.02553 9.23359 8.98178L8.90984 8.44803C8.90415 8.43869 8.90044 8.42827 8.89893 8.41743C8.89743 8.40659 8.89816 8.39556 8.90109 8.38501C8.90402 8.37447 8.90908 8.36463 8.91596 8.35612C8.92284 8.34761 8.9314 8.34061 8.94109 8.33553C8.97859 8.31553 9.02484 8.32928 9.04609 8.36428L9.35984 8.87553L9.35859 8.92178C9.35859 8.93678 9.36984 8.94803 9.38484 8.94803C9.46234 8.94803 9.69109 8.93928 9.81859 8.82803C9.88609 8.76928 9.92734 8.70928 9.95234 8.65928C9.98234 8.59928 9.96734 8.52678 9.91734 8.48303L9.83734 8.41303L9.73359 8.43553L9.54984 8.25178C9.52234 8.22428 9.52984 8.17678 9.56484 8.15928C9.5746 8.15441 9.58553 8.15241 9.59638 8.15352C9.60722 8.15463 9.61753 8.15879 9.62609 8.16553L9.91359 8.38553C9.91359 8.38553 9.97234 8.43803 10.0323 8.43803H10.2011C10.2536 8.43803 10.3023 8.46553 10.3286 8.51053L10.7048 9.14303C10.7048 9.14303 10.7611 9.19553 10.7936 9.19303C10.8261 9.19053 10.8698 9.05428 10.8698 9.05428C10.8698 8.92803 10.9311 8.80803 11.0348 8.73553L11.1648 8.64428C11.2236 8.60303 11.3023 8.60928 11.3536 8.65803L11.4336 8.73553V8.81803C11.4336 8.83178 11.4448 8.84428 11.4598 8.84428H11.4948L11.5286 8.81053H11.5686V9.14303C11.5686 9.18053 11.5823 9.21678 11.6086 9.24428L11.8586 9.51178V9.41553C11.8586 9.38178 11.8473 9.34928 11.8261 9.32303L11.7086 9.17678C11.6873 9.15053 11.6761 9.11803 11.6761 9.08428V8.98303C11.6761 8.96678 11.6961 8.95928 11.7073 8.97053L11.8586 9.12553L11.8623 9.22303C11.8636 9.24178 11.8861 9.25053 11.8986 9.23678L12.1123 9.00553C12.1123 9.00553 12.1748 8.92803 12.1123 8.86428C12.0673 8.81803 12.0048 8.75928 11.9648 8.72178C11.9598 8.7172 11.9559 8.7116 11.9533 8.70535C11.9507 8.6991 11.9494 8.69235 11.9497 8.68558C11.9499 8.67881 11.9516 8.67217 11.9547 8.66612C11.9577 8.66007 11.962 8.65475 11.9673 8.65053L12.0086 8.61553L12.1761 8.61803C12.1761 8.61803 12.2861 8.61928 12.3686 8.53428C12.4698 8.43053 12.6186 8.26678 12.6186 8.26678C12.6186 8.26678 12.6486 8.15053 12.5786 8.08928C12.5073 8.02803 12.5386 7.95303 12.5386 7.95303L12.6261 7.87678V7.82303H12.3973C12.3973 7.82303 12.4173 7.70178 12.5798 7.69428C12.6011 7.69303 12.6211 7.69303 12.6373 7.69178C12.654 7.69136 12.6706 7.69429 12.686 7.70039C12.7015 7.7065 12.7157 7.71565 12.7275 7.72731C12.7394 7.73896 12.7489 7.75289 12.7553 7.76826C12.7617 7.78363 12.7649 7.80013 12.7648 7.81678V8.04178L12.7986 8.04553C12.7986 8.04553 12.8623 8.05178 12.8861 7.96803C12.8861 7.96803 12.9286 7.95553 12.9286 7.90428V7.84303L12.8673 7.76928L12.9673 7.64178C12.9848 7.61928 13.0098 7.60428 13.0373 7.59928L13.0886 7.58928C13.119 7.58356 13.146 7.56604 13.1636 7.54053L13.3948 7.19428C13.4111 7.16928 13.4198 7.14053 13.4198 7.11178V7.01678C13.4198 7.00452 13.415 6.99275 13.4063 6.98408C13.3976 6.97541 13.3859 6.97053 13.3736 6.97053H13.2386C13.2386 6.97053 13.1823 6.90428 13.2586 6.85928C13.3123 6.82678 13.4173 6.74053 13.4761 6.69178C13.5023 6.66928 13.5361 6.65678 13.5711 6.65678H13.8436C13.8748 6.65678 13.9048 6.64678 13.9298 6.62928L14.1086 6.50178C14.1151 6.49691 14.123 6.49428 14.1311 6.49428C14.2086 6.49428 14.2486 6.58678 14.1961 6.64428L14.0111 6.84303C13.9861 6.86928 13.9711 6.90553 13.9711 6.94178L13.9686 7.10178C13.9686 7.13178 13.9923 7.15678 14.0236 7.15678H14.0686L14.3111 6.90928C14.3273 6.89303 14.3386 6.87053 14.3423 6.84803L14.3511 6.79553C14.3636 6.72428 14.4248 6.67178 14.4973 6.67178H14.6036C14.6398 6.67178 14.6748 6.65928 14.7011 6.63553L14.8498 6.50553C14.8573 6.49928 14.8661 6.49553 14.8761 6.49553H14.9536C14.9761 6.49553 14.9936 6.47803 14.9936 6.45553V6.38053C14.9936 6.36928 14.9986 6.35928 15.0061 6.35178L15.0636 6.29803C15.1098 6.25553 15.1773 6.24553 15.2336 6.27553L15.3311 6.32678C15.3548 6.33928 15.3848 6.33303 15.4023 6.31178L15.4498 6.25178C15.4552 6.24503 15.459 6.23716 15.4609 6.22876C15.4628 6.22036 15.4628 6.21163 15.4609 6.20323C15.4589 6.19483 15.4552 6.18697 15.4498 6.18023C15.4444 6.17348 15.4376 6.16804 15.4298 6.16428L14.9586 5.93303C14.9336 5.92428 14.6161 5.91928 14.5936 5.91928ZM7.99109 7.47928L7.99484 7.47803C8.00352 7.4745 8.01307 7.47368 8.02222 7.47569C8.03137 7.4777 8.0397 7.48244 8.04609 7.48928L8.18234 7.63178L8.09734 7.70428L7.97234 7.55303C7.95234 7.52803 7.96109 7.49053 7.99109 7.47928ZM8.80484 8.16053H8.72859C8.71859 8.16053 8.70859 8.15928 8.69859 8.15678C8.61609 8.13428 8.20359 8.01928 8.12734 7.98428C8.1189 7.98054 8.11147 7.97482 8.10568 7.96762C8.0999 7.96042 8.09592 7.95193 8.09408 7.94287C8.09225 7.93382 8.09261 7.92445 8.09513 7.91557C8.09766 7.90668 8.10227 7.89852 8.10859 7.89178L8.21109 7.78303C8.24609 7.75178 8.30109 7.75428 8.33359 7.78803L8.42734 7.88678L8.50859 7.87178L8.48609 7.81303C8.48609 7.81303 8.47609 7.78553 8.46609 7.76053C8.45609 7.73553 8.51109 7.70428 8.51109 7.70428C8.51109 7.70428 8.56734 7.69928 8.56734 7.78553C8.56734 7.87178 8.65859 7.93678 8.65859 7.93678H8.96984C8.98984 7.93678 9.00234 7.95803 8.99234 7.97428L8.93734 8.07928C8.91109 8.12928 8.85984 8.16053 8.80484 8.16053ZM9.19609 7.69428H9.08984L9.01234 7.63428C9.00357 7.62802 8.99312 7.62453 8.98234 7.62428H8.88109C8.86609 7.62428 8.85109 7.63053 8.83984 7.64053L8.76609 7.70553L8.69359 7.71678C8.68684 7.71795 8.67992 7.71773 8.67326 7.71614C8.66659 7.71455 8.66032 7.71162 8.65482 7.70753C8.64933 7.70343 8.64472 7.69826 8.64129 7.69233C8.63785 7.6864 8.63566 7.67984 8.63484 7.67303L8.62484 7.59303C8.62234 7.56928 8.62984 7.54678 8.64484 7.52928L8.76484 7.39428L8.81859 7.39053L8.81609 7.41428C8.81234 7.44303 8.83484 7.46803 8.86359 7.46803H8.88984C8.91609 7.46803 8.93984 7.45303 8.94984 7.42928L8.97484 7.37553L9.08609 7.39428L9.09609 7.47428C9.09859 7.49178 9.10734 7.50803 9.12109 7.51928L9.24484 7.62303V7.64553C9.24484 7.67303 9.22359 7.69428 9.19609 7.69428ZM9.73359 7.78053V7.87178H9.54109L9.52484 7.78053C9.52234 7.76803 9.52484 7.75428 9.53234 7.74428L9.54234 7.73053C9.55609 7.71053 9.55359 7.68303 9.53484 7.66678L9.44484 7.58428V7.43303L9.57609 7.37678H9.64359C9.66984 7.37678 9.69234 7.39428 9.69984 7.41928L9.70109 7.42303C9.70609 7.44178 9.70109 7.46053 9.68859 7.47553C9.68133 7.48359 9.67656 7.49357 9.67484 7.50428L9.66234 7.58303L9.76859 7.68053L9.69234 7.73053L9.73359 7.78053Z" fill="#BDCF46"/>
<path d="M12.5436 9.78783L12.0886 9.73533C12.0769 9.73418 12.0655 9.73123 12.0548 9.72658L11.9448 9.68158C11.9286 9.67533 11.9123 9.66408 11.8998 9.65158L11.5336 9.26783C11.5284 9.26292 11.5223 9.25916 11.5157 9.25678C11.509 9.25441 11.5019 9.25349 11.4948 9.25408C11.4598 9.25908 11.4448 9.30033 11.4686 9.32658L11.8536 9.75783C11.8698 9.77533 11.8898 9.78783 11.9123 9.79533L12.1298 9.86033C12.1423 9.86408 12.1536 9.86533 12.1661 9.86533H12.5386L12.5436 9.78783ZM13.4486 10.0303L13.4298 10.0828C13.3923 10.1878 13.2873 10.2541 13.1761 10.2403C13.1685 10.2395 13.1612 10.2367 13.1549 10.2324C13.1487 10.228 13.1436 10.2222 13.1401 10.2154C13.1366 10.2085 13.1349 10.201 13.1351 10.1933C13.1352 10.1857 13.1373 10.1782 13.1411 10.1716L13.2348 9.99908L12.9911 10.0078C12.9586 10.0091 12.9261 10.0166 12.8973 10.0303L12.8061 10.0728C12.7823 10.0841 12.7598 10.0991 12.7411 10.1178L12.5711 10.2828C12.5511 10.3028 12.5273 10.3191 12.5011 10.3303L12.3861 10.3816C12.2998 10.4203 12.2436 10.5053 12.2436 10.6003V10.6178C12.2436 10.6503 12.2498 10.6816 12.2623 10.7116L12.3523 10.9228C12.3548 10.9278 12.3561 10.9316 12.3573 10.9366C12.3723 10.9941 12.4348 11.0278 12.4911 11.0078L12.7211 10.9266C12.7536 10.9153 12.7886 10.9103 12.8223 10.9141L13.0973 10.9391C13.1723 10.9453 13.2386 10.9866 13.2786 11.0503L13.2973 11.0791C13.3411 11.1491 13.4173 11.1916 13.5011 11.1916H13.6123C13.6761 11.1916 13.7373 11.1666 13.7823 11.1216L13.9048 10.9991C13.9498 10.9541 13.9748 10.8928 13.9748 10.8291V10.6691C13.9748 10.6016 13.9461 10.5378 13.8973 10.4928L13.6461 10.2628C13.6223 10.2416 13.6036 10.2153 13.5911 10.1866L13.5161 10.0241C13.4998 9.99908 13.4586 10.0003 13.4486 10.0303Z" fill="#BDCF46"/>
<path d="M12.3576 9.60344L12.4264 9.47969C12.4389 9.45719 12.4439 9.43219 12.4426 9.40719L12.4314 9.27594C12.4289 9.24469 12.3914 9.22844 12.3676 9.24969L12.1751 9.41219C12.1699 9.41623 12.164 9.4192 12.1576 9.42094L12.0714 9.43719C12.0489 9.44094 12.0351 9.46344 12.0401 9.48469L12.0576 9.55594C12.063 9.57732 12.0739 9.59691 12.0893 9.61272C12.1046 9.62852 12.1239 9.63998 12.1451 9.64594L12.2114 9.66469C12.2689 9.68094 12.3289 9.65594 12.3576 9.60344ZM13.4001 9.89469C13.4189 9.89469 13.4376 9.89094 13.4551 9.88219L13.5876 9.81844C13.5889 9.81844 13.5889 9.81844 13.5901 9.81969L13.6876 9.93969C13.6926 9.94594 13.7001 9.94969 13.7089 9.94969H13.7739C13.7964 9.94969 13.8089 9.92469 13.7951 9.90719L13.6939 9.77594L13.6501 9.73969L13.2926 9.56219H13.2914L13.2064 9.59594H13.1414C13.1401 9.59594 13.1401 9.59594 13.1401 9.59469L13.1164 9.51719C13.1148 9.51213 13.1116 9.50771 13.1073 9.50456C13.1031 9.50142 13.0979 9.49971 13.0926 9.49969H13.0051C13.0018 9.49969 12.9986 9.50033 12.9956 9.50159C12.9925 9.50285 12.9898 9.50469 12.9874 9.50701C12.9851 9.50933 12.9833 9.51209 12.982 9.51512C12.9808 9.51815 12.9801 9.5214 12.9801 9.52469V9.60094H13.0364V9.62344C13.0364 9.65094 13.0576 9.67469 13.0851 9.67844L13.2126 9.69344C13.2126 9.69344 13.2139 9.69344 13.2139 9.69469L13.2826 9.77969C13.3039 9.80594 13.3001 9.86969 13.2776 9.89594L13.2764 9.89719H13.4001V9.89469ZM13.4739 7.47094L13.4289 7.51094C13.3789 7.55594 13.3489 7.61719 13.3414 7.68469C13.3351 7.74719 13.3076 7.80469 13.2639 7.84969C13.2001 7.91344 13.1201 7.95719 13.0339 7.97594L13.0164 7.97969L12.9451 8.03719C12.9451 8.03719 12.9251 8.13844 12.9451 8.16219C12.9539 8.17344 12.9914 8.17094 13.0026 8.16219C13.0176 8.15094 13.0189 8.08844 13.0189 8.08844L13.2451 8.00719C13.2451 8.00719 13.3014 8.08094 13.3289 8.08469C13.3414 8.08594 13.3689 8.07219 13.3764 8.06094C13.4064 8.01969 13.4401 7.86844 13.4401 7.86844C13.4514 7.83469 13.4589 7.79844 13.4626 7.76344L13.4751 7.63094L13.5764 7.62469L13.6164 7.54344L13.5114 7.53344L13.4739 7.47094ZM9.30262 10.5722C9.30262 10.5722 9.33637 10.6384 9.41762 10.6384C9.49887 10.6384 9.53262 10.5722 9.53262 10.5722V10.2634C9.53262 10.1734 9.43387 10.1184 9.35762 10.1659C9.32387 10.1872 9.30262 10.2234 9.30262 10.2634V10.5722ZM6.74512 5.19094L6.88012 5.11219L6.88262 5.10719C6.88724 5.09807 6.88944 5.08792 6.88899 5.07771C6.88855 5.0675 6.88547 5.05758 6.88007 5.0489C6.87466 5.04023 6.86711 5.0331 6.85814 5.0282C6.84917 5.0233 6.83909 5.0208 6.82887 5.02094H6.52137L6.48887 4.98594C6.45137 4.94344 6.39762 4.91844 6.34137 4.91719L5.88387 4.89844C5.85387 4.90344 5.82387 4.90969 5.79387 4.91469L5.52262 5.02844C5.50012 5.03844 5.47637 5.04344 5.45137 5.04469L5.01637 5.06594C4.98387 5.06719 4.95262 5.07719 4.92387 5.09219L4.68012 5.22969C4.6761 5.23196 4.67273 5.23521 4.6703 5.23913C4.66787 5.24305 4.66646 5.24752 4.66622 5.25213C4.66597 5.25673 4.66688 5.26133 4.66887 5.26549C4.67087 5.26965 4.67387 5.27324 4.67762 5.27594C4.69637 5.28969 4.69012 5.31969 4.66762 5.32469L4.47762 5.37219C4.45887 5.37719 4.45137 5.39844 4.46012 5.41344L4.52387 5.51719C4.52762 5.52344 4.53512 5.52844 4.54262 5.52969L4.88387 5.58844C4.93637 5.59719 4.98262 5.62594 5.01512 5.66844L5.25012 5.97719L5.31887 6.07094C5.34387 6.10469 5.34012 6.15094 5.31262 6.18094L5.26012 6.23594C5.23512 6.26219 5.23012 6.30094 5.24637 6.33344L5.41762 6.67594C5.43262 6.70719 5.46137 6.72969 5.49387 6.73969C5.60012 6.77094 5.71262 6.71344 5.75012 6.60844L5.79512 6.48094C5.80137 6.46219 5.81512 6.44594 5.83262 6.43469L6.02387 6.27219C6.04762 6.25219 6.07512 6.23844 6.10387 6.22969L6.40387 6.14844C6.46762 6.13094 6.51887 6.08594 6.54262 6.02469L6.68387 5.67469C6.70512 5.62344 6.70387 5.56594 6.68262 5.51469L6.65512 5.44969C6.61637 5.35594 6.65387 5.24469 6.74512 5.19094ZM4.24512 5.49469L4.30262 5.39344C4.32262 5.35844 4.35012 5.33094 4.38512 5.31219L4.85762 5.05094L4.80387 4.98969L4.26762 4.95719C4.25262 4.95594 4.23637 4.95719 4.22137 4.95969L3.69887 5.04344C3.66762 5.04844 3.63762 5.05969 3.61137 5.07844C3.50637 5.14969 3.48762 5.29719 3.57012 5.39344L3.68762 5.52969C3.72762 5.57719 3.78762 5.60344 3.84887 5.60344H4.05887C4.13637 5.60344 4.20762 5.56219 4.24512 5.49469ZM4.84137 6.44844L4.89012 6.39219C4.90262 6.37719 4.90012 6.35469 4.88387 6.34469L4.73137 6.23719L4.19887 5.84344C4.17637 5.82719 4.15012 5.81844 4.12262 5.81844H3.91262C3.87887 5.81844 3.84762 5.83094 3.82387 5.85469L3.71262 5.96219C3.70655 5.9677 3.70288 5.97537 3.70241 5.98355C3.70195 5.99173 3.70471 5.99977 3.71012 6.00594L3.77262 6.08469C3.77887 6.09344 3.79012 6.09844 3.80137 6.09719L3.86137 6.09219C3.88012 6.09094 3.89512 6.10469 3.89637 6.12219L3.89887 6.15719C3.89887 6.16219 3.89887 6.16719 3.89637 6.17219L3.86887 6.23969C3.86387 6.25094 3.86637 6.26469 3.87387 6.27344L3.94012 6.35094C3.94637 6.35844 3.95637 6.36344 3.96637 6.36219L4.03012 6.35969C4.04762 6.35844 4.06137 6.34469 4.06137 6.32719V6.19094C4.06137 6.17344 4.07512 6.15969 4.09137 6.15844L4.18012 6.15219C4.18762 6.15219 4.19637 6.15344 4.20262 6.15844L4.36512 6.28219C4.37762 6.29219 4.38137 6.30844 4.37512 6.32219L4.32137 6.42969C4.31637 6.43969 4.30637 6.44719 4.29387 6.44719L4.24262 6.45094C4.22762 6.45219 4.21637 6.46219 4.21262 6.47594C4.20887 6.49594 4.22262 6.51469 4.24262 6.51594L4.35262 6.52469C4.37512 6.52594 4.39762 6.53469 4.41637 6.54719L4.61012 6.68219C4.62262 6.69094 4.63887 6.68969 4.65012 6.67969L4.71137 6.62844C4.71637 6.62469 4.72012 6.61844 4.72137 6.61219L4.74137 6.53469C4.74387 6.52594 4.74262 6.51594 4.73762 6.50844L4.67137 6.40594L4.69262 6.40219C4.70012 6.40094 4.70887 6.40219 4.71512 6.40594L4.80012 6.45594C4.81262 6.46344 4.83012 6.46094 4.84137 6.44844ZM2.41762 6.06344V5.95219H2.48387L2.58137 6.08844C2.59387 6.10469 2.60887 6.11844 2.62762 6.12844L2.75512 6.19219C2.77262 6.20094 2.79262 6.20594 2.81262 6.20594H3.20762V6.07469L3.06137 6.02344L2.89262 5.93344C2.87012 5.93344 2.84887 5.92719 2.83012 5.91719L2.56012 5.76344C2.54107 5.75264 2.51951 5.74704 2.49762 5.74719H2.33512C2.28012 5.74719 2.23137 5.78219 2.21387 5.83469L2.20012 5.87844C2.18512 5.92344 2.19762 5.97469 2.23137 6.00844L2.28887 6.06594H2.41762V6.06344ZM2.97887 5.84594L3.08262 5.79219C3.10012 5.78344 3.12012 5.77844 3.14137 5.77844H3.19762C3.24637 5.77844 3.29137 5.80594 3.31262 5.85094L3.35387 5.93594V6.02344H3.16637V5.91219L3.08762 5.87219L2.99387 5.87469L2.97887 5.84594ZM3.33762 5.77844L3.43137 5.93094L3.50512 5.97469H3.61387L3.72262 5.85969L3.64012 5.75219L3.42887 5.77844H3.33762ZM2.73137 5.54594L2.87887 5.59844C2.88887 5.60219 2.89762 5.60594 2.90637 5.61219L3.00887 5.67969C3.02637 5.69094 3.04512 5.69844 3.06637 5.69969L3.25262 5.71844L3.23012 5.60344L3.00762 5.48094C2.98887 5.47094 2.96762 5.46469 2.94637 5.46469H2.83262L2.73137 5.54594ZM7.46012 6.48594L7.51387 6.57094C7.51887 6.57844 7.51887 6.58969 7.51262 6.59719L7.47137 6.65344C7.46762 6.65969 7.46512 6.66719 7.46762 6.67344L7.48387 6.72969C7.48512 6.73469 7.48762 6.73844 7.49137 6.74094L7.57762 6.80719C7.63637 6.85219 7.64387 6.93844 7.59387 6.99344L7.59262 6.99469C7.56887 7.02094 7.53387 7.03719 7.49762 7.03719H7.39512C7.38012 7.03719 7.36887 7.02344 7.37262 7.00844L7.39887 6.90594C7.40012 6.89969 7.40512 6.89344 7.41137 6.89094L7.45762 6.86844C7.46637 6.86469 7.47137 6.85469 7.47012 6.84469L7.46762 6.81719C7.46694 6.81233 7.46478 6.80779 7.46142 6.80421C7.45806 6.80063 7.45368 6.79817 7.44887 6.79719L7.38262 6.78344C7.37765 6.7824 7.37248 6.78307 7.36794 6.78534C7.3634 6.7876 7.35976 6.79134 7.35762 6.79594L7.34262 6.82844C7.34262 6.82969 7.34137 6.83094 7.34137 6.83219L7.30887 6.94219C7.30637 6.95219 7.29637 6.95844 7.28637 6.95844L7.18262 6.95594C7.17665 6.95594 7.17093 6.95357 7.16671 6.94935C7.16249 6.94513 7.16012 6.93941 7.16012 6.93344V6.81594C7.16012 6.80344 7.17012 6.79344 7.18262 6.79344L7.23637 6.79219C7.24387 6.79219 7.25012 6.78844 7.25512 6.78219L7.30512 6.70969C7.30762 6.70594 7.30887 6.70094 7.30887 6.69594V6.58594C7.30887 6.57844 7.31262 6.57219 7.31762 6.56844L7.42637 6.48094C7.43637 6.47219 7.45262 6.47469 7.46012 6.48594Z" fill="#BDCF46"/>
<path d="M6.2848 6.30914H6.20105L6.14855 6.37039L6.2923 6.48289C6.31855 6.50414 6.3523 6.51289 6.38605 6.50914L6.5498 6.48914V6.38289L6.51855 6.30789L6.34855 6.35164L6.2848 6.30914ZM7.8623 5.41039H8.07855C8.1048 5.41039 8.1298 5.41789 8.15105 5.43289L8.3748 5.58914L8.3448 5.63414L8.15605 5.53789L8.07855 5.67914H7.9948L7.8098 5.44664L7.8623 5.41039ZM8.25855 5.24414H8.53855L8.6098 5.29789L8.53855 5.37164H8.38855C8.36105 5.37164 8.3348 5.36289 8.31355 5.34664L8.2323 5.28664L8.25855 5.24414ZM3.1348 5.31914L3.3198 5.25039L3.42855 5.30664L3.4823 5.40789L3.4148 5.42039L3.2123 5.48414L2.95605 5.36414L3.1348 5.31914ZM3.58855 5.62289H3.66855L3.7098 5.66789H4.1373L4.1723 5.71914L4.1498 5.76664L3.7523 5.77914L3.7073 5.72914L3.64105 5.71914L3.63105 5.67789L3.58855 5.66289V5.62289ZM3.2773 5.63039L3.30855 5.71914L3.3898 5.72539L3.45605 5.64914L3.4273 5.62289L3.30855 5.61289L3.2773 5.63039ZM3.4973 5.52164L3.4823 5.57164L3.5448 5.59164L3.58855 5.55664H3.61605V5.53414L3.5623 5.51164L3.5298 5.49914L3.4973 5.52164ZM3.99355 8.73039L4.07105 8.69664H4.27855L4.4398 8.81789C4.4398 8.81789 4.51605 8.82789 4.51605 8.84789C4.51605 8.86789 4.4398 8.87789 4.4398 8.87789H4.32855L4.1723 8.77164L4.07605 8.78664L3.99355 8.75289C3.98355 8.75039 3.98355 8.73539 3.99355 8.73039ZM4.53105 8.92164C4.5223 8.90164 4.5923 8.86039 4.5923 8.86039C4.5923 8.86039 4.7048 8.83164 4.72105 8.86039C4.7298 8.87664 4.68105 8.92164 4.68105 8.92164C4.68105 8.92164 4.54605 8.95664 4.53105 8.92164ZM13.4773 11.3241H13.7398L13.6086 11.4766H13.5473L13.4773 11.3241Z" fill="#BDCF46"/>
</svg>
